<?xml version="1.0" encoding="UTF-8" standalone="no"?>
<svg
   xmlns:dc="http://purl.org/dc/elements/1.1/"
   xmlns:cc="http://creativecommons.org/ns#"
   xmlns:rdf="http://www.w3.org/1999/02/22-rdf-syntax-ns#"
   xmlns:svg="http://www.w3.org/2000/svg"
   xmlns="http://www.w3.org/2000/svg"
   xmlns:sodipodi="http://sodipodi.sourceforge.net/DTD/sodipodi-0.dtd"
   xmlns:inkscape="http://www.inkscape.org/namespaces/inkscape"
   sodipodi:docname="fb.svg"
   inkscape:version="1.0beta1 (32d4812, 2019-09-19)"
   id="svg5200"
   version="1.1"
   viewBox="0 0 50 50"
   height="50mm"
   width="50mm">
  <defs
     id="defs5194" />
  <sodipodi:namedview
     inkscape:window-maximized="0"
     inkscape:window-y="52"
     inkscape:window-x="31"
     inkscape:window-height="855"
     inkscape:window-width="1401"
     inkscape:pagecheckerboard="true"
     showgrid="false"
     inkscape:document-rotation="0"
     inkscape:current-layer="layer1"
     inkscape:document-units="mm"
     inkscape:cy="560"
     inkscape:cx="365.71429"
     inkscape:zoom="0.35"
     inkscape:pageshadow="2"
     inkscape:pageopacity="0.0"
     borderopacity="1.0"
     bordercolor="#666666"
     pagecolor="#ffffff"
     id="base" />
  <metadata
     id="metadata5197">
    <rdf:RDF>
      <cc:Work
         rdf:about="">
        <dc:format>image/svg+xml</dc:format>
        <dc:type
           rdf:resource="http://purl.org/dc/dcmitype/StillImage" />
        <dc:title></dc:title>
      </cc:Work>
    </rdf:RDF>
  </metadata>
  <g
     id="layer1"
     inkscape:groupmode="layer"
     inkscape:label="Слой 1">
    <g
       style="display:inline;opacity:1;stop-opacity:1"
       id="g1309"
       transform="matrix(0.35277777,0,0,-0.35277777,39.887627,9.9865359)">
      <path
         d="m 0,0 c -10.869,10.834 -25.843,17.565 -42.398,17.565 -16.556,0 -31.529,-6.731 -42.362,-17.565 -10.834,-10.833 -17.564,-25.806 -17.564,-42.361 0,-16.557 6.73,-31.529 17.564,-42.398 10.833,-10.834 25.806,-17.528 42.362,-17.528 16.555,0 31.529,6.694 42.398,17.528 10.833,10.869 17.528,25.841 17.528,42.398 C 17.528,-25.806 10.833,-10.833 0,0 m -42.398,22.639 c 17.96,0 34.192,-7.269 45.961,-19.039 11.769,-11.771 19.04,-28.002 19.04,-45.961 0,-17.959 -7.271,-34.192 -19.04,-45.961 -11.769,-11.77 -28.001,-19.039 -45.961,-19.039 -17.96,0 -34.192,7.269 -45.961,19.039 -11.769,11.769 -19.039,28.002 -19.039,45.961 0,17.959 7.27,34.19 19.039,45.961 11.769,11.77 28.001,19.039 45.961,19.039"
         style="fill:#ffffff;fill-opacity:1;fill-rule:nonzero;stroke:none"
         id="path1311"
         inkscape:connector-curvature="0" />
    </g>
    <g
       style="display:inline;opacity:1;stop-opacity:1"
       id="g1313"
       transform="matrix(0.35277777,0,0,-0.35277777,26.68259,20.245349)">
      <path
         d="m 0,0 v 5.326 c 0,2.556 1.691,3.167 2.916,3.167 h 7.45 V 19.867 H 0.108 c -11.409,0 -13.964,-8.422 -13.964,-13.892 V 0 h -6.623 v -8.026 -5.255 h 6.694 v -33.185 h 13.282 v 33.185 H 9.322 L 9.755,-8.063 10.546,0 Z"
         style="fill:#ffffff;fill-opacity:1;fill-rule:evenodd;stroke:none"
         id="path1315"
         inkscape:connector-curvature="0" />
    </g>
  </g>
</svg>
