<?xml version="1.0" encoding="UTF-8" standalone="no"?>
<svg
   xmlns:dc="http://purl.org/dc/elements/1.1/"
   xmlns:cc="http://creativecommons.org/ns#"
   xmlns:rdf="http://www.w3.org/1999/02/22-rdf-syntax-ns#"
   xmlns:svg="http://www.w3.org/2000/svg"
   xmlns="http://www.w3.org/2000/svg"
   width="50mm"
   height="50mm"
   viewBox="0 0 50 50"
   version="1.1"
   id="svg5200">
  <defs
     id="defs5194" />
  <metadata
     id="metadata5197">
    <rdf:RDF>
      <cc:Work
         rdf:about="">
        <dc:format>image/svg+xml</dc:format>
        <dc:type
           rdf:resource="http://purl.org/dc/dcmitype/StillImage" />
        <dc:title></dc:title>
      </cc:Work>
    </rdf:RDF>
  </metadata>
  <g
     id="layer1">
    <g
       transform="matrix(0.35277777,0,0,-0.35277777,39.887627,9.9861832)"
       id="g1317"
       style="display:inline;opacity:1;stop-opacity:1">
      <path
         id="path1319"
         style="fill:#ffffff;fill-opacity:1;fill-rule:nonzero;stroke:none"
         d="m 0,0 c -10.869,10.833 -25.843,17.564 -42.398,17.564 -16.555,0 -31.529,-6.731 -42.362,-17.564 -10.834,-10.834 -17.564,-25.807 -17.564,-42.362 0,-16.556 6.73,-31.529 17.564,-42.398 10.833,-10.834 25.807,-17.527 42.362,-17.527 16.555,0 31.529,6.693 42.398,17.527 10.833,10.869 17.528,25.842 17.528,42.398 C 17.528,-25.807 10.833,-10.834 0,0 m -42.398,22.638 c 17.96,0 34.192,-7.269 45.961,-19.039 11.769,-11.77 19.04,-28.001 19.04,-45.961 0,-17.959 -7.271,-34.192 -19.04,-45.96 -11.769,-11.771 -28.001,-19.04 -45.961,-19.04 -17.959,0 -34.192,7.269 -45.961,19.04 -11.769,11.768 -19.039,28.001 -19.039,45.96 0,17.96 7.27,34.191 19.039,45.961 11.769,11.77 28.002,19.039 45.961,19.039" />
    </g>
    <g
       style="font-variant:normal;font-weight:bold;font-stretch:normal;font-size:22.9306px;font-family:'Proxima Nova Rg';-inkscape-font-specification:ProximaNova-Bold;writing-mode:lr-tb;opacity:1;fill:#ffffff;fill-opacity:1;fill-rule:nonzero;stroke:none;stroke-width:0.352777;image-rendering:auto;stop-opacity:1"
       id="text1323"
       aria-label="OK">
      <path
         id="path934"
         style="stroke-width:0.352777"
         d="m 25.000339,24.604764 q 0,3.985983 -2.284103,6.337265 -2.284103,2.340085 -6.314872,2.340085 -4.019573,0 -6.303676,-2.340085 -2.2841022,-2.351282 -2.2841022,-6.337265 0,-4.019573 2.2841022,-6.348462 2.284103,-2.340086 6.303676,-2.340086 4.008376,0 6.303675,2.340086 2.2953,2.328889 2.2953,6.348462 z m -5.69906,4.221111 q 0.627008,-0.761368 0.929316,-1.791453 0.302308,-1.041282 0.302308,-2.440855 0,-1.500342 -0.347094,-2.55282 -0.347094,-1.052479 -0.906924,-1.701881 -0.571025,-0.671795 -1.321196,-0.974103 -0.738975,-0.302307 -1.545128,-0.302307 -0.817351,0 -1.545129,0.291111 -0.716581,0.291111 -1.321196,0.962906 -0.559829,0.627009 -0.91812,1.73547 -0.347094,1.097265 -0.347094,2.552821 0,1.489145 0.335897,2.541624 0.347094,1.041282 0.906923,1.70188 0.55983,0.660598 1.310001,0.974103 0.75017,0.313504 1.578718,0.313504 0.828547,0 1.578718,-0.313504 0.750171,-0.324701 1.31,-0.996496 z" />
      <path
         id="path936"
         style="stroke-width:0.352777"
         d="m 41.892807,32.93502 h -5.27359 l -4.982479,-6.673162 -1.007693,1.220427 V 32.93502 H 26.329558 V 16.26331 h 4.299487 v 7.546496 l 5.956582,-7.546496 h 4.982479 l -6.516411,7.714445 z" />
    </g>
  </g>
</svg>
